<svg height="64" stroke="#000" viewBox="-42.5 -42.5 509.99 509.99" width="64" xmlns="http://www.w3.org/2000/svg"><rect fill="#fff" height="509.99" rx="254.995" stroke="none" width="509.99" x="-42.5" y="-42.5"/><path d="m351.945 78.127c0-15.715-12.785-28.5-28.5-28.5s-28.5 12.785-28.5 28.5 12.785 28.5 28.5 28.5 28.5-12.785 28.5-28.5zm-28.5 8.5c-4.687 0-8.5-3.813-8.5-8.5s3.813-8.5 8.5-8.5 8.5 3.813 8.5 8.5-3.813 8.5-8.5 8.5z"/><path d="m418.793 44.984c-1.861-5.2-7.586-7.905-12.786-6.042l-10.469 3.749c-13.224-25.337-39.777-42.691-70.105-42.691-.211 0-.424.001-.635.002-28.26.232-54.416 15.711-68.26 40.398-15.471 27.58-32.914 51.936-51.846 72.389-55.825 60.303-135.699 144.647-138.454 147.555l-54.92 55.768c-6.843 6.942-7.62 17.3-1.89 25.187 5.731 7.886 15.822 10.349 24.537 5.985 35.455-17.72 77.226-19.256 114.606-4.212 18.526 7.456 38.012 11.621 58.021 12.433l20.874 62.641c1.396 4.191 5.299 6.841 9.486 6.841 1.047 0 2.114-.166 3.162-.516 5.24-1.746 8.072-7.409 6.326-12.648l-18.893-56.697c5.313-.412 10.579-1.064 15.785-1.949l21.651 64.969c1.396 4.19 5.299 6.841 9.486 6.841 1.048 0 2.113-.166 3.162-.516 5.24-1.746 8.072-7.409 6.326-12.649l-21.048-63.16c27.994-8.187 53.671-23.389 74.897-44.743 33.171-33.371 51.283-77.511 51.001-124.292-.102-15.604-2.251-31.018-6.398-45.91 14.413-15.004 22.375-35.102 22.026-56.085-.094-5.551-.779-10.96-1.973-16.178l10.285-3.684c5.203-1.862 7.908-7.586 6.046-12.786zm-34.351 32.984c.287 17.303-6.992 33.803-19.973 45.27-2.968 2.622-4.108 6.749-2.909 10.523 4.71 14.82 7.149 30.295 7.251 45.991.25 41.412-15.797 80.502-45.186 110.068-7.557 7.603-15.753 14.32-24.459 20.115-4.381-13.661-6.606-27.898-6.606-42.473 0-30.697 9.801-59.795 28.344-84.149 3.346-4.394 2.496-10.668-1.898-14.014-4.396-3.347-10.67-2.495-14.014 1.898-21.217 27.866-32.432 61.154-32.432 96.265 0 18.106 3.003 35.765 8.919 52.624-20.836 10.187-43.83 15.576-67.629 15.576-19.987 0-39.438-3.749-57.812-11.144-19.451-7.828-39.949-11.72-60.345-11.72-23.459 0-46.781 5.152-68.194 15.386l53.056-53.876c.045-.046.09-.092.135-.139.813-.859 82.074-86.649 138.679-147.794 19.999-21.606 38.373-47.24 54.612-76.192 10.344-18.444 29.878-30.009 50.979-30.182 21.891-.176 41.204 11.756 51.532 29.511l-2.987 1.07c-5.199 1.862-7.904 7.587-6.042 12.786 1.463 4.085 5.311 6.631 9.414 6.631 1.119 0 2.258-.189 3.372-.588l3.204-1.148c.586 3.157.932 6.396.989 9.705z"/><path d="m257.13 174.243c-.009 0-.017 0-.025 0-5.511 0-9.985 4.461-9.999 9.976-.001.365-.005.729-.01 1.086-.339 22.138-9.196 43.061-24.938 58.914-15.743 15.853-36.603 24.853-58.735 25.342-8.946.196-17.647-.942-26.018-3.397l83.582-92.036c3.713-4.089 3.408-10.413-.681-14.126-4.088-3.713-10.413-3.409-14.126.68l-93.384 102.829c-2.123 2.339-3.018 5.543-2.41 8.644.606 3.1 2.643 5.732 5.491 7.097 14.313 6.86 29.625 10.331 45.553 10.331.81 0 1.621-.009 2.434-.027 27.334-.604 53.076-11.7 72.485-31.245 19.407-19.543 30.326-45.362 30.745-72.709.007-.446.011-.891.012-1.335.013-5.523-4.454-10.011-9.976-10.024z"/><path d="m336.89 139.683c-3.255 2.417-6.46 4.992-9.525 7.654-4.17 3.621-4.615 9.937-.993 14.107 1.977 2.277 4.758 3.443 7.554 3.443 2.325 0 4.66-.806 6.553-2.45 2.683-2.33 5.487-4.583 8.334-6.697 4.435-3.292 5.36-9.556 2.068-13.99-3.294-4.433-9.557-5.359-13.991-2.067z"/></svg>